<svg id="Layer_1" data-name="Layer 1" xmlns="http://www.w3.org/2000/svg" viewBox="0 0 450.82 450.91"><defs><style>.cls-1{fill:#fefefe;}.cls-2{fill:#0173cf;}</style></defs><title>star</title><path class="cls-1" d="M119,570V119.09H569.85V570ZM512.75,306.22l-.23-1h-4.79c-39,0-78-.07-117,.09-3.76,0-5.5-.88-6.62-4.64-4.5-15.15-9.36-30.18-14.09-45.26-8.15-25.91-16.29-51.83-24.87-79.11-13.58,43.79-26.77,86.28-40,129.06H176.6c2.39,1.88,3.89,3.11,5.43,4.28q47.55,36.14,95.12,72.22c2.29,1.73,3.67,3.07,2.62,6.44Q260.45,450,241.45,511.81l.83,1,102.57-78.32,104.31,79.19c-.44-1.75-.63-2.67-.91-3.57q-19-59.94-38-119.84c-1.13-3.54-.69-5.46,2.45-7.74,11.05-8,21.8-16.47,32.65-24.77Z" transform="translate(-119.03 -119.09)"/><path class="cls-2" d="M455.18,288.68l-67.43,51.57C376.9,348.55,366.15,357,355.1,365c-3.14,2.29-3.58,4.21-2.45,7.75q19.17,59.87,38,119.84c.28.89.47,1.82.91,3.57L287.28,417,184.71,495.3l-.83-1Q203,432.49,222.2,370.75c1.05-3.37-.33-4.71-2.62-6.45q-47.6-36-95.12-72.21c-1.54-1.18-3-2.4-5.43-4.28H247.55c13.27-42.78,26.46-85.27,40-129.06,8.58,27.28,16.72,53.19,24.87,79.11,4.73,15.07,9.59,30.11,14.09,45.26,1.12,3.75,2.86,4.65,6.62,4.64,39-.16,78-.1,117-.09H455Z" transform="translate(-119.03 -119.09)"/></svg>